<svg width="456" height="490" viewBox="0 0 456 490" fill="none" xmlns="http://www.w3.org/2000/svg">
<path d="M451.3 255.8C451.4 255.7 451.4 255.7 451.5 255.6C451.8 255.2 452.1 254.9 452.3 254.5C452.4 254.4 452.4 254.3 452.5 254.2C452.7 253.8 453 253.4 453.2 253C453.2 252.9 453.3 252.8 453.3 252.8C453.5 252.4 453.7 252 453.9 251.5C453.9 251.4 453.9 251.4 454 251.3C454.2 250.9 454.3 250.4 454.5 249.9C454.5 249.8 454.5 249.7 454.6 249.7C454.7 249.2 454.9 248.8 454.9 248.3C454.9 248.1 454.9 248 455 247.8C455.1 247.4 455.1 247 455.2 246.6C455.3 246 455.3 245.5 455.3 244.9C455.3 244.3 455.3 243.8 455.2 243.2C455.2 242.8 455.1 242.4 455 242C455 241.8 455 241.7 454.9 241.5C454.8 241 454.7 240.6 454.6 240.1C454.6 240 454.6 239.9 454.5 239.9C454.4 239.4 454.2 239 454 238.5C454 238.4 454 238.4 453.9 238.3C453.7 237.9 453.5 237.4 453.3 237C453.3 236.9 453.2 236.8 453.2 236.8C453 236.4 452.8 236 452.5 235.6C452.4 235.5 452.4 235.4 452.3 235.3C452 234.9 451.8 234.5 451.5 234.2C451.4 234.1 451.4 234.1 451.3 234C450.9 233.6 450.6 233.1 450.1 232.7L351.2 133.9C344.5 127.2 333.6 127.2 326.9 133.9C320.2 140.6 320.2 151.5 326.9 158.2L396.5 227.8H119.8C110.3 227.8 102.6 235.5 102.6 244.9C102.6 254.4 110.3 262.1 119.8 262.1H396.6L327.5 331.2C320.8 337.9 320.8 348.8 327.5 355.5C330.8 358.8 335.2 360.5 339.6 360.5C344 360.5 348.4 358.8 351.7 355.5L450 257.2C450.5 256.6 450.9 256.2 451.3 255.8Z" fill="#959595"/>
<path d="M93.7 34.3H221.7C231.2 34.3 238.9 26.6 238.9 17.2C238.9 7.7 231.2 0 221.7 0H93.7C42.4 0 0.599976 41.8 0.599976 93.1V396.8C0.599976 448.1 42.4 489.9 93.7 489.9H219.6C229.1 489.9 236.8 482.2 236.8 472.8C236.8 463.3 229.1 455.6 219.6 455.6H93.7C61.3 455.6 34.9 429.2 34.9 396.8V93.1C35 60.6 61.3 34.3 93.7 34.3Z" fill="#959595"/>
</svg>
