<svg id="Camada_1" data-name="Camada 1" xmlns="http://www.w3.org/2000/svg" viewBox="0 0 549 302.2"><defs><style>.cls-1{fill:#1d1d1b;}</style></defs><path class="cls-1" d="M108.82,431.65a9.27,9.27,0,0,0,6.52-2.69,9.21,9.21,0,0,0-6.52-15.74H78.08a9.15,9.15,0,0,0-9.19,9.23,9.19,9.19,0,0,0,9.19,9.2" transform="translate(-20 -242.18)"/><path class="cls-1" d="M143.8,535.15a9.26,9.26,0,0,1-2.68,6.52,9.14,9.14,0,0,1-6.51,2.71H82.73a9.21,9.21,0,0,1-6.52-15.74,9.06,9.06,0,0,1,6.52-2.72h51.88A9.22,9.22,0,0,1,143.8,535.15Z" transform="translate(-20 -242.18)"/><path class="cls-1" d="M118.05,422.45a9.14,9.14,0,0,1-2.71,6.51,9.27,9.27,0,0,1-6.52,2.69H78.08a9.24,9.24,0,0,1-6.51-15.75,9.3,9.3,0,0,1,6.51-2.68h30.74A9.22,9.22,0,0,1,118.05,422.45Z" transform="translate(-20 -242.18)"/><path class="cls-1" d="M569,296.62V490a54.41,54.41,0,0,1-54.4,54.4H163.13a9.21,9.21,0,0,1-6.51-15.74,9.06,9.06,0,0,1,6.51-2.72h30.53a9.21,9.21,0,0,0,0-18.42H119.77a9.23,9.23,0,0,1-9.23-9.2,9.27,9.27,0,0,1,9.23-9.23H229.6a94.54,94.54,0,0,0,6.15,8.36c.34.47.74.9,1.12,1.37a1,1,0,0,0,.19.22c.4.47.81.93,1.24,1.4l.1.13.06.06c2.18,2.4,4.46,4.71,6.86,6.89a92.9,92.9,0,0,0,8,6.52,96.48,96.48,0,0,0,22.6,12.22h0a95.37,95.37,0,0,0,32.24,6.11,89.63,89.63,0,0,0,59.05-23.1c2-1.78,3.87-3.65,5.68-5.62.18-.21.37-.43.59-.65a87.18,87.18,0,0,0,7.67-9.7l.12,0,7.3-2.27,93.28-29.31,18.49-5.8.06,0-.06-.19V314.29a34,34,0,0,1,6.58-20.2,42.62,42.62,0,0,0-21.08-28.68,41.88,41.88,0,0,0-12.22-4.52,4.29,4.29,0,0,1,0,.62A11.87,11.87,0,0,1,450,262.82c0-.44-.07-.87-.07-1.31a11.85,11.85,0,0,1,8.83-11.44h.06a33.53,33.53,0,0,1,4-.34H463c.72-.07,1.4-.07,2.12-.07a53,53,0,0,1,50.29,36.17,34.37,34.37,0,0,1,42.74,3.4,42.7,42.7,0,0,0-31.58-35,11.87,11.87,0,0,1-23.7.71,4.85,4.85,0,0,1-.06-.93,11.89,11.89,0,0,1,11.88-11.88h.09A54.41,54.41,0,0,1,569,296.62Z" transform="translate(-20 -242.18)"/><path class="cls-1" d="M481.33,442.49l-81,25.41-3.09,1-4.74,1.5-.62.18-.69.22-.43.13a86.42,86.42,0,0,0-80.19-108.56c-1.12-.06-2.24-.1-3.37-.1s-2.24,0-3.36.1a65.38,65.38,0,0,0-61.89,60.26c-.16,1.69-.22,3.37-.22,5.09a65.45,65.45,0,0,0,59.11,65.12,35.47,35.47,0,0,0,4.87.32,5.16,5.16,0,0,0,.68,0,37.83,37.83,0,0,0,0-75.64,26.19,26.19,0,0,1,.16,52.31c-.5,0-1,0-1.5,0s-1,0-1.5,0a9,9,0,0,1-1.27-.09,43.39,43.39,0,0,1,.53-86.64c.74-.06,1.49-.06,2.24-.06s1.5,0,2.25.06a69.91,69.91,0,0,1,65.06,51,62.2,62.2,0,0,1,2.62,18.93c-.42,15.08-5.33,24.6-5.33,24.6-8.18,18.15-22.55,28.3-39.7,34.46a38.39,38.39,0,0,1-6.78,1.63s-5.52.88-10,1.38a68.82,68.82,0,0,1-8.51.5,74,74,0,0,1-63.33-35.66,27.36,27.36,0,0,1-1.43-2.53,4.5,4.5,0,0,1-.5-.9c-.15-.32-.34-.66-.5-1a2.18,2.18,0,0,1-.18-.38,3.76,3.76,0,0,0-.16-.37s0,0,0-.06c-.94-1.9-1.78-3.84-2.53-5.8,0-.09-.09-.22-.12-.31H29.23A9.25,9.25,0,0,1,20,459.3a9.25,9.25,0,0,1,9.23-9.23H166.91a9.21,9.21,0,1,0,0-18.42H135.14a9.22,9.22,0,1,1,0-18.43h77.69a132.77,132.77,0,0,1,7.51-18.43H176a9.23,9.23,0,1,1,0-18.45h55.31a137.94,137.94,0,0,1,250,66.15Z" transform="translate(-20 -242.18)"/></svg>