<svg id="Camada_1" data-name="Camada 1" xmlns="http://www.w3.org/2000/svg" viewBox="0 0 550 303.2"><defs><style>.cls-1{fill:#1d1d1b;stroke:#fff;stroke-miterlimit:10;}</style></defs><path class="cls-1" d="M104.32,392.8a9.27,9.27,0,0,0,6.52-2.69,9.13,9.13,0,0,0,2.71-6.51,9.23,9.23,0,0,0-9.23-9.23H73.58a9.15,9.15,0,0,0-9.19,9.23,9.19,9.19,0,0,0,9.19,9.2" transform="translate(-15 -202.83)"/><path class="cls-1" d="M139.3,496.3a9.26,9.26,0,0,1-2.68,6.52,9.14,9.14,0,0,1-6.51,2.71H78.23a9.21,9.21,0,0,1-6.52-15.74,9.06,9.06,0,0,1,6.52-2.71h51.88A9.21,9.21,0,0,1,139.3,496.3Z" transform="translate(-15 -202.83)"/><path class="cls-1" d="M113.55,383.6a9.13,9.13,0,0,1-2.71,6.51,9.27,9.27,0,0,1-6.52,2.69H73.58a9.24,9.24,0,0,1-6.51-15.75,9.3,9.3,0,0,1,6.51-2.68h30.74A9.23,9.23,0,0,1,113.55,383.6Z" transform="translate(-15 -202.83)"/><path class="cls-1" d="M564.5,257.77V451.13a54.41,54.41,0,0,1-54.4,54.4H158.63a9.21,9.21,0,0,1-6.51-15.74,9.05,9.05,0,0,1,6.51-2.71h30.53a9.22,9.22,0,0,0,0-18.43H115.27a9.23,9.23,0,0,1-9.23-9.2,9.27,9.27,0,0,1,9.23-9.23H225.1a94.54,94.54,0,0,0,6.15,8.36c.34.47.74.9,1.12,1.37a.84.84,0,0,0,.19.22c.4.47.81.94,1.24,1.4l.1.13.06.06c2.18,2.4,4.46,4.71,6.86,6.89a92.9,92.9,0,0,0,8,6.52,96.11,96.11,0,0,0,22.6,12.22h0a95.37,95.37,0,0,0,32.24,6.11,89.63,89.63,0,0,0,59.05-23.1c2-1.78,3.87-3.65,5.68-5.62.18-.21.37-.43.59-.65a86.27,86.27,0,0,0,7.67-9.7l.12,0,7.3-2.27,93.28-29.31,18.49-5.8.06,0-.06-.19V275.44a34,34,0,0,1,6.58-20.2,42.64,42.64,0,0,0-21.08-28.68A41.88,41.88,0,0,0,469.13,222a4.29,4.29,0,0,1,0,.62A11.87,11.87,0,0,1,445.5,224c0-.44-.07-.87-.07-1.31a11.85,11.85,0,0,1,8.83-11.44h.06a33.53,33.53,0,0,1,4-.34h.19c.72-.07,1.4-.07,2.12-.07A53,53,0,0,1,510.94,247a34.37,34.37,0,0,1,42.74,3.4,42.71,42.71,0,0,0-31.58-34.95,11.87,11.87,0,0,1-23.7.72,5,5,0,0,1-.06-.94,11.89,11.89,0,0,1,11.88-11.88h.09A54.41,54.41,0,0,1,564.5,257.77Z" transform="translate(-15 -202.83)"/><path class="cls-1" d="M476.83,403.65l-81,25.41-3.09,1-4.74,1.5-.62.19-.69.21-.43.13A86.42,86.42,0,0,0,306,323.49c-1.12-.06-2.24-.09-3.37-.09s-2.24,0-3.36.09a65.38,65.38,0,0,0-61.89,60.26c-.16,1.69-.22,3.37-.22,5.09A65.46,65.46,0,0,0,296.31,454a37.13,37.13,0,0,0,4.87.31,5.16,5.16,0,0,0,.68,0,37.83,37.83,0,0,0,0-75.64,26.2,26.2,0,0,1,.16,52.32c-.5,0-1,0-1.5,0s-1,0-1.5,0a9.06,9.06,0,0,1-1.27-.1,43.39,43.39,0,0,1,.53-86.64c.74-.06,1.49-.06,2.24-.06s1.5,0,2.25.06a69.91,69.91,0,0,1,65.06,51,62.09,62.09,0,0,1,2.62,18.92c-.42,15.08-5.33,24.6-5.33,24.6-8.18,18.15-22.55,28.3-39.7,34.46a38.91,38.91,0,0,1-6.78,1.64s-5.52.88-10,1.37a68.82,68.82,0,0,1-8.51.5A74,74,0,0,1,236.76,441a26.12,26.12,0,0,1-1.43-2.53,4.5,4.5,0,0,1-.5-.9c-.15-.32-.34-.66-.5-1a2.1,2.1,0,0,1-.18-.37,3.08,3.08,0,0,0-.16-.38s0,0,0-.06c-.94-1.9-1.78-3.84-2.53-5.8,0-.09-.09-.22-.12-.31H24.73a9.25,9.25,0,0,1-9.23-9.23,9.25,9.25,0,0,1,9.23-9.23H162.41a9.21,9.21,0,1,0,0-18.42H130.64a9.22,9.22,0,1,1,0-18.43h77.69a132.77,132.77,0,0,1,7.51-18.43H171.51a9.23,9.23,0,1,1,0-18.45h55.31a137.94,137.94,0,0,1,250,66.16Z" transform="translate(-15 -202.83)"/></svg>